# Blender v2.78 (sub 0) OBJ File: ''
# www.blender.org
mtllib Wireframe.mtl
o Cube_Cube.001
v -1.988453 0.017320 1.988453
v -2.011547 -0.017321 2.011547
v -1.988453 5.982679 1.988453
v -2.011547 6.017321 2.011547
v -1.988453 0.017320 -1.988453
v -2.011547 -0.017321 -2.011547
v -1.988453 5.982679 -1.988453
v -2.011547 6.017321 -2.011547
v 1.988453 0.017320 1.988453
v 2.011547 -0.017321 2.011547
v 1.988453 5.982679 1.988453
v 2.011547 6.017321 2.011547
v 1.988453 0.017320 -1.988453
v 2.011547 -0.017321 -2.011547
v 1.988453 5.982679 -1.988453
v 2.011547 6.017321 -2.011547
v -1.985858 0.021213 0.000000
v -2.014142 -0.021212 0.000000
v 0.000000 0.021213 -1.985858
v 0.000000 -0.021212 -2.014142
v 1.985858 0.021213 0.000000
v 2.014142 -0.021212 0.000000
v 0.000000 0.021213 1.985858
v 0.000000 -0.021212 2.014142
v 0.000000 0.030000 0.000000
v 0.000000 -0.030000 0.000000
v -1.985858 0.021213 1.000000
v -2.014142 -0.021212 1.000000
v -1.000000 0.021213 -1.985858
v -1.000000 -0.021212 -2.014142
v 1.985858 0.021213 -1.000000
v 2.014142 -0.021212 -1.000000
v 1.000000 0.021213 1.985858
v 1.000000 -0.021212 2.014142
v -1.985858 0.021213 -1.000000
v -2.014142 -0.021212 -1.000000
v 1.000000 0.021213 -1.985858
v 1.000000 -0.021212 -2.014142
v 1.985858 0.021213 1.000000
v 2.014142 -0.021212 1.000000
v -1.000000 0.021213 1.985858
v -1.000000 -0.021212 2.014142
v 0.000000 0.030000 1.000000
v 0.000000 -0.030000 1.000000
v 0.000000 0.030000 -1.000000
v 0.000000 -0.030000 -1.000000
v -1.000000 0.030000 0.000000
v -1.000000 -0.030000 0.000000
v 1.000000 0.030000 0.000000
v 1.000000 -0.030000 0.000000
v 1.000000 0.030000 -1.000000
v 1.000000 -0.030000 -1.000000
v -1.000000 0.030000 -1.000000
v -1.000000 -0.030000 -1.000000
v -1.000000 0.030000 1.000000
v -1.000000 -0.030000 1.000000
v 1.000000 0.030000 1.000000
v 1.000000 -0.030000 1.000000
v -2.000000 0.030000 1.980000
v -2.000000 5.970000 1.980000
v -2.000000 5.970000 -1.980000
v -2.000000 0.030000 -1.980000
v -2.000000 0.030000 -1.000000
v -2.000000 0.030000 0.000000
v -2.000000 0.030000 1.000000
v -1.980000 0.030000 -2.000000
v -1.980000 5.970000 -2.000000
v 1.980000 5.970000 -2.000000
v 1.980000 0.030000 -2.000000
v 1.000000 0.030000 -2.000000
v 0.000000 0.030000 -2.000000
v -1.000000 0.030000 -2.000000
v 2.000000 0.030000 -1.980000
v 2.000000 5.970000 -1.980000
v 2.000000 5.970000 1.980000
v 2.000000 0.030000 1.980000
v 2.000000 0.030000 1.000000
v 2.000000 0.030000 0.000000
v 2.000000 0.030000 -1.000000
v 1.980000 0.030000 2.000000
v 1.980000 5.970000 2.000000
v -1.980000 5.970000 2.000000
v -1.980000 0.030000 2.000000
v -1.000000 0.030000 2.000000
v 0.000000 0.030000 2.000000
v 1.000000 0.030000 2.000000
v 1.020000 0.000000 1.020000
v 1.980000 0.000000 1.020000
v 1.980000 0.000000 1.980000
v 1.020000 0.000000 1.980000
v 1.980000 6.000000 -1.980000
v -1.980000 6.000000 -1.980000
v -1.980000 6.000000 1.980000
v 1.980000 6.000000 1.980000
v -0.980000 0.000000 1.020000
v -0.020000 0.000000 1.020000
v -0.020000 0.000000 1.980000
v -0.980000 0.000000 1.980000
v -0.980000 0.000000 -0.980000
v -0.020000 0.000000 -0.980000
v -0.020000 0.000000 -0.020000
v -0.980000 0.000000 -0.020000
v 1.020000 0.000000 -0.980000
v 1.980000 0.000000 -0.980000
v 1.980000 0.000000 -0.020000
v 1.020000 0.000000 -0.020000
v 0.020000 0.000000 -0.980000
v 0.980000 0.000000 -0.980000
v 0.980000 0.000000 -0.020000
v 0.020000 0.000000 -0.020000
v 0.020000 0.000000 -1.980000
v 0.980000 0.000000 -1.980000
v 0.980000 0.000000 -1.020000
v 0.020000 0.000000 -1.020000
v 1.020000 0.000000 -1.980000
v 1.980000 0.000000 -1.980000
v 1.980000 0.000000 -1.020000
v 1.020000 0.000000 -1.020000
v -1.980000 0.000000 -0.980000
v -1.020000 0.000000 -0.980000
v -1.020000 0.000000 -0.020000
v -1.980000 0.000000 -0.020000
v -1.980000 0.000000 -1.980000
v -1.020000 0.000000 -1.980000
v -1.020000 0.000000 -1.020000
v -1.980000 0.000000 -1.020000
v -0.980000 0.000000 -1.980000
v -0.020000 0.000000 -1.980000
v -0.020000 0.000000 -1.020000
v -0.980000 0.000000 -1.020000
v -1.980000 0.000000 1.020000
v -1.020000 0.000000 1.020000
v -1.020000 0.000000 1.980000
v -1.980000 0.000000 1.980000
v -1.980000 0.000000 0.020000
v -1.020000 0.000000 0.020000
v -1.020000 0.000000 0.980000
v -1.980000 0.000000 0.980000
v -0.980000 0.000000 0.020000
v -0.020000 0.000000 0.020000
v -0.020000 0.000000 0.980000
v -0.980000 0.000000 0.980000
v 0.020000 0.000000 1.020000
v 0.980000 0.000000 1.020000
v 0.980000 0.000000 1.980000
v 0.020000 0.000000 1.980000
v 0.020000 0.000000 0.020000
v 0.980000 0.000000 0.020000
v 0.980000 0.000000 0.980000
v 0.020000 0.000000 0.980000
v 1.020000 0.000000 0.020000
v 1.980000 0.000000 0.020000
v 1.980000 0.000000 0.980000
v 1.020000 0.000000 0.980000
vn 0.5907 0.0000 -0.8069
vn -0.9391 0.0000 -0.3437
vn 0.7393 -0.6733 0.0000
vn -0.9715 -0.2371 0.0000
vn 0.5907 0.0000 0.8069
vn -0.9391 0.0000 0.3437
vn 0.6408 0.7677 -0.0024
vn -0.9676 0.2525 -0.0008
vn 0.5278 0.8494 0.0000
vn -0.9639 0.2662 0.0000
vn 0.6408 0.7677 0.0024
vn -0.9676 0.2525 0.0008
vn 0.8069 0.0000 0.5907
vn 0.3437 0.0000 -0.9391
vn 0.0000 -0.6733 0.7393
vn 0.0000 -0.2371 -0.9715
vn -0.8069 0.0000 0.5907
vn -0.3437 0.0000 -0.9391
vn 0.0024 0.7677 0.6408
vn 0.0008 0.2525 -0.9676
vn 0.0000 0.8494 0.5278
vn 0.0000 0.2662 -0.9639
vn -0.0024 0.7677 0.6408
vn -0.0008 0.2525 -0.9676
vn -0.5907 0.0000 0.8069
vn 0.9391 0.0000 0.3437
vn -0.7393 -0.6733 0.0000
vn 0.9715 -0.2371 0.0000
vn -0.5907 0.0000 -0.8069
vn 0.9391 0.0000 -0.3437
vn -0.6408 0.7677 0.0024
vn 0.9676 0.2525 0.0008
vn -0.5278 0.8494 0.0000
vn 0.9639 0.2662 0.0000
vn -0.6408 0.7677 -0.0024
vn 0.9676 0.2525 -0.0008
vn -0.8069 0.0000 -0.5907
vn -0.3437 0.0000 0.9391
vn 0.0000 -0.6733 -0.7393
vn 0.0000 -0.2371 0.9715
vn 0.8069 0.0000 -0.5907
vn 0.3437 0.0000 0.9391
vn -0.0024 0.7677 -0.6408
vn -0.0008 0.2525 0.9676
vn 0.0000 0.8494 -0.5278
vn 0.0000 0.2662 0.9639
vn 0.0024 0.7677 -0.6408
vn 0.0008 0.2525 0.9676
vn 0.0028 0.6160 0.7877
vn 0.0027 -0.6151 0.7885
vn -0.9372 0.3487 0.0019
vn -0.5061 -0.8625 0.0010
vn 0.0019 0.3487 -0.9372
vn 0.0010 -0.8625 -0.5061
vn 0.7877 0.6160 0.0028
vn 0.7885 -0.6151 0.0027
vn 0.0000 -0.4386 0.8987
vn 0.0000 0.8766 0.4813
vn 0.8987 -0.4386 0.0000
vn 0.4813 0.8766 0.0000
vn 0.0000 -0.4386 -0.8987
vn 0.0000 0.8766 -0.4813
vn -0.8987 -0.4386 0.0000
vn -0.4813 0.8766 0.0000
vn 0.0000 0.5547 0.8321
vn 0.0000 -0.5547 0.8321
vn -0.7877 0.6160 0.0028
vn -0.7885 -0.6151 0.0027
vn 0.0000 -0.8494 -0.5277
vn -0.8321 0.5547 0.0000
vn -0.8321 -0.5547 0.0000
vn 0.0000 0.5547 -0.8321
vn 0.0000 -0.5547 -0.8321
vn 0.8321 0.5547 0.0000
vn 0.8321 -0.5547 0.0000
vn -0.5277 -0.8494 0.0000
vn 0.0028 0.6160 -0.7877
vn 0.0027 -0.6151 -0.7885
vn 0.8320 0.5547 0.0000
vn 0.0000 -0.8494 0.5277
vn -0.7877 0.6160 -0.0028
vn -0.7885 -0.6151 -0.0027
vn 0.7877 0.6160 -0.0028
vn 0.7885 -0.6151 -0.0027
vn 0.0019 0.3487 0.9372
vn 0.0010 -0.8625 0.5061
vn -0.9372 0.3487 -0.0019
vn -0.5061 -0.8625 -0.0010
vn -0.0028 0.6160 0.7877
vn -0.0027 -0.6151 0.7885
vn -0.8320 -0.5547 0.0000
vn -0.0028 0.6160 -0.7877
vn -0.0027 -0.6151 -0.7885
vn 0.5277 -0.8494 0.0000
vn -0.0019 0.3487 0.9372
vn -0.0010 -0.8625 0.5061
vn 0.9372 0.3487 -0.0019
vn 0.5061 -0.8625 -0.0010
vn -0.0019 0.3487 -0.9372
vn -0.0010 -0.8625 -0.5061
vn 0.9372 0.3487 0.0019
vn 0.5061 -0.8625 0.0010
vn -0.8320 0.5547 0.0000
vn 0.8320 -0.5547 0.0000
usemtl None
s off
f 59//1 60//1 3//1 1//1
f 60//2 59//2 2//2 4//2
f 60//3 61//3 7//3 3//3
f 61//4 60//4 4//4 8//4
f 61//5 62//5 5//5 7//5
f 62//6 61//6 8//6 6//6
f 62//7 63//7 35//7 5//7
f 63//8 62//8 6//8 36//8
f 63//9 64//9 17//9 35//9
f 64//10 63//10 36//10 18//10
f 64//9 65//9 27//9 17//9
f 65//10 64//10 18//10 28//10
f 65//11 59//11 1//11 27//11
f 59//12 65//12 28//12 2//12
f 66//13 67//13 7//13 5//13
f 67//14 66//14 6//14 8//14
f 67//15 68//15 15//15 7//15
f 68//16 67//16 8//16 16//16
f 68//17 69//17 13//17 15//17
f 69//18 68//18 16//18 14//18
f 69//19 70//19 37//19 13//19
f 70//20 69//20 14//20 38//20
f 70//21 71//21 19//21 37//21
f 71//22 70//22 38//22 20//22
f 71//21 72//21 29//21 19//21
f 72//22 71//22 20//22 30//22
f 72//23 66//23 5//23 29//23
f 66//24 72//24 30//24 6//24
f 73//25 74//25 15//25 13//25
f 74//26 73//26 14//26 16//26
f 74//27 75//27 11//27 15//27
f 75//28 74//28 16//28 12//28
f 75//29 76//29 9//29 11//29
f 76//30 75//30 12//30 10//30
f 76//31 77//31 39//31 9//31
f 77//32 76//32 10//32 40//32
f 77//33 78//33 21//33 39//33
f 78//34 77//34 40//34 22//34
f 78//33 79//33 31//33 21//33
f 79//34 78//34 22//34 32//34
f 79//35 73//35 13//35 31//35
f 73//36 79//36 32//36 14//36
f 80//37 81//37 11//37 9//37
f 81//38 80//38 10//38 12//38
f 81//39 82//39 3//39 11//39
f 82//40 81//40 12//40 4//40
f 82//41 83//41 1//41 3//41
f 83//42 82//42 4//42 2//42
f 83//43 84//43 41//43 1//43
f 84//44 83//44 2//44 42//44
f 84//45 85//45 23//45 41//45
f 85//46 84//46 42//46 24//46
f 85//45 86//45 33//45 23//45
f 86//46 85//46 24//46 34//46
f 86//47 80//47 9//47 33//47
f 80//48 86//48 34//48 10//48
f 87//49 88//49 39//49 57//49
f 88//50 87//50 58//50 40//50
f 88//51 89//51 9//51 39//51
f 89//52 88//52 40//52 10//52
f 89//53 90//53 33//53 9//53
f 90//54 89//54 10//54 34//54
f 90//55 87//55 57//55 33//55
f 87//56 90//56 34//56 58//56
f 91//57 92//57 7//57 15//57
f 92//58 91//58 16//58 8//58
f 92//59 93//59 3//59 7//59
f 93//60 92//60 8//60 4//60
f 93//61 94//61 11//61 3//61
f 94//62 93//62 4//62 12//62
f 94//63 91//63 15//63 11//63
f 91//64 94//64 12//64 16//64
f 95//65 96//65 43//65 55//65
f 96//66 95//66 56//66 44//66
f 96//67 97//67 23//67 43//67
f 97//68 96//68 44//68 24//68
f 97//22 98//22 41//22 23//22
f 98//69 97//69 24//69 42//69
f 98//55 95//55 55//55 41//55
f 95//56 98//56 42//56 56//56
f 99//65 100//65 45//65 53//65
f 100//66 99//66 54//66 46//66
f 100//70 101//70 25//70 45//70
f 101//71 100//71 46//71 26//71
f 101//72 102//72 47//72 25//72
f 102//73 101//73 26//73 48//73
f 102//74 99//74 53//74 47//74
f 99//75 102//75 48//75 54//75
f 103//49 104//49 31//49 51//49
f 104//50 103//50 52//50 32//50
f 104//10 105//10 21//10 31//10
f 105//76 104//76 32//76 22//76
f 105//77 106//77 49//77 21//77
f 106//78 105//78 22//78 50//78
f 106//79 103//79 51//79 49//79
f 103//75 106//75 50//75 52//75
f 107//65 108//65 51//65 45//65
f 108//66 107//66 46//66 52//66
f 108//70 109//70 49//70 51//70
f 109//71 108//71 52//71 50//71
f 109//72 110//72 25//72 49//72
f 110//73 109//73 50//73 26//73
f 110//74 107//74 45//74 25//74
f 107//75 110//75 26//75 46//75
f 111//46 112//46 37//46 19//46
f 112//80 111//80 20//80 38//80
f 112//81 113//81 51//81 37//81
f 113//82 112//82 38//82 52//82
f 113//72 114//72 45//72 51//72
f 114//73 113//73 52//73 46//73
f 114//83 111//83 19//83 45//83
f 111//84 114//84 46//84 20//84
f 115//85 116//85 13//85 37//85
f 116//86 115//86 38//86 14//86
f 116//87 117//87 31//87 13//87
f 117//88 116//88 14//88 32//88
f 117//77 118//77 51//77 31//77
f 118//78 117//78 32//78 52//78
f 118//83 115//83 37//83 51//83
f 115//84 118//84 52//84 38//84
f 119//89 120//89 53//89 35//89
f 120//90 119//90 36//90 54//90
f 120//70 121//70 47//70 53//70
f 121//91 120//91 54//91 48//91
f 121//92 122//92 17//92 47//92
f 122//93 121//93 48//93 18//93
f 122//34 119//34 35//34 17//34
f 119//94 122//94 18//94 36//94
f 123//95 124//95 29//95 5//95
f 124//96 123//96 6//96 30//96
f 124//81 125//81 53//81 29//81
f 125//82 124//82 30//82 54//82
f 125//92 126//92 35//92 53//92
f 126//93 125//93 54//93 36//93
f 126//97 123//97 5//97 35//97
f 123//98 126//98 36//98 6//98
f 127//46 128//46 19//46 29//46
f 128//80 127//80 30//80 20//80
f 128//81 129//81 45//81 19//81
f 129//82 128//82 20//82 46//82
f 129//72 130//72 53//72 45//72
f 130//73 129//73 46//73 54//73
f 130//83 127//83 29//83 53//83
f 127//84 130//84 54//84 30//84
f 131//89 132//89 55//89 27//89
f 132//90 131//90 28//90 56//90
f 132//67 133//67 41//67 55//67
f 133//68 132//68 56//68 42//68
f 133//99 134//99 1//99 41//99
f 134//100 133//100 42//100 2//100
f 134//101 131//101 27//101 1//101
f 131//102 134//102 2//102 28//102
f 135//89 136//89 47//89 17//89
f 136//90 135//90 18//90 48//90
f 136//103 137//103 55//103 47//103
f 137//71 136//71 48//71 56//71
f 137//92 138//92 27//92 55//92
f 138//93 137//93 56//93 28//93
f 138//34 135//34 17//34 27//34
f 135//94 138//94 28//94 18//94
f 139//65 140//65 25//65 47//65
f 140//66 139//66 48//66 26//66
f 140//70 141//70 43//70 25//70
f 141//71 140//71 26//71 44//71
f 141//72 142//72 55//72 43//72
f 142//73 141//73 44//73 56//73
f 142//74 139//74 47//74 55//74
f 139//75 142//75 56//75 48//75
f 143//65 144//65 57//65 43//65
f 144//66 143//66 44//66 58//66
f 144//67 145//67 33//67 57//67
f 145//68 144//68 58//68 34//68
f 145//22 146//22 23//22 33//22
f 146//69 145//69 34//69 24//69
f 146//55 143//55 43//55 23//55
f 143//56 146//56 24//56 44//56
f 147//65 148//65 49//65 25//65
f 148//66 147//66 26//66 50//66
f 148//70 149//70 57//70 49//70
f 149//71 148//71 50//71 58//71
f 149//72 150//72 43//72 57//72
f 150//73 149//73 58//73 44//73
f 150//74 147//74 25//74 43//74
f 147//75 150//75 44//75 26//75
f 151//49 152//49 21//49 49//49
f 152//50 151//50 50//50 22//50
f 152//10 153//10 39//10 21//10
f 153//76 152//76 22//76 40//76
f 153//77 154//77 57//77 39//77
f 154//78 153//78 40//78 58//78
f 154//74 151//74 49//74 57//74
f 151//104 154//104 58//104 50//104
